PathFileType	4	(X/Y/Z)	C:/Users/opensim2020/Desktop/walking_exp_matlab/subject06_walking20_straight_03.trc																																																																																																																															
DataRate	CameraRate	NumFrames	NumMarkers	Units	OrigDataRate	OrigDataStartFrame	OrigNumFrames																																																																																																																											
100	100	5	43	mm	100	1747	132																																																																																																																											
Frame#	Time	LFHD			RFHD			LBHD			RBHD			C7			T10			CLAV			STRN			RBAK			LSHO			LUPA			LELB			LFRM			LWRA			LWRB			LFIN			RSHO			RUPA			RELB			RFRM			RWRA			RWRB			RFIN			LASI			RASI			LPSI			RPSI			LTHI			LKNE			LTIB			LANK			LHEE			LTOE			RTHI			RKNE			RTIB			RANK			RHEE			RTOE			*39			*40			*41			*42		
		X1	Y1	Z1	X2	Y2	Z2	X3	Y3	Z3	X4	Y4	Z4	X5	Y5	Z5	X6	Y6	Z6	X7	Y7	Z7	X8	Y8	Z8	X9	Y9	Z9	X10	Y10	Z10	X11	Y11	Z11	X12	Y12	Z12	X13	Y13	Z13	X14	Y14	Z14	X15	Y15	Z15	X16	Y16	Z16	X17	Y17	Z17	X18	Y18	Z18	X19	Y19	Z19	X20	Y20	Z20	X21	Y21	Z21	X22	Y22	Z22	X23	Y23	Z23	X24	Y24	Z24	X25	Y25	Z25	X26	Y26	Z26	X27	Y27	Z27	X28	Y28	Z28	X29	Y29	Z29	X30	Y30	Z30	X31	Y31	Z31	X32	Y32	Z32	X33	Y33	Z33	X34	Y34	Z34	X35	Y35	Z35	X36	Y36	Z36	X37	Y37	Z37	X38	Y38	Z38	X39	Y39	Z39	X40	Y40	Z40	X41	Y41	Z41	X42	Y42	Z42	X43	Y43	Z43
																																																																																																																																		
67	0.66	-65.28256	1625.39392	-1056.85852	-73.9679	1611.23022	-925.82617	-198.5929	1573.76025	-1067.51257	-205.71399	1564.66956	-938.75446	-208.17148	1417.46631	-1009.98511	-262.01788	1090.55896	-1000.00433	-102.46163	1332.64392	-1005.59253	-74.27155	1155.70593	-1006.64618	-292.83615	1253.98621	-925.49713	-153.79906	1363.19446	-1170.14575	-218.32118	1171.32324	-1236.46948	-266.14169	1069.33533	-1245.13196	-304.98224	926.35828	-1275.60498	-287.22714	792.63483	-1248.98059	-349.46432	816.46936	-1277.57642	-351.10095	724.42029	-1281.57275	-149.49045	1373.18372	-845.54608	-198.14189	1186.13269	-744.72455	-186.27371	1069.70203	-721.18652	-121.18169	974.31354	-705.47369	0.23171	894.22784	-745.12616	-43.88036	862.59509	-706.64038	28.84761	823.63916	-705.34613	-80.97858	926.82312	-1098.63562	-102.6042	925.67804	-879.68573	-240.84074	952.91852	-1091.53723	-250.489	958.80591	-922.78699	-64.51838	624.87146	-1174.32056	3.90161	481.89056	-1138.5072	54.52096	231.5771	-1133.75	112.62621	68.49704	-1092.76807	78.50814	42.01581	-1046.55981	257.57452	85.2048	-1082.66577	-218.51633	603.12335	-846.57562	-249.44875	479.45728	-870.41058	-412.65958	259.60791	-887.29034	-511.97116	104.1394	-940.39185	-559.63318	98.51984	-985.25995	-380.78995	30.87007	-942.09821	-168.31175	1663.93616	-1003.66577	NaN	NaN	NaN	NaN	NaN	NaN	NaN	NaN	NaN
68	0.67	-50.48503	1624.89502	-1057.67126	-59.71459	1610.6427	-926.62885	-183.89738	1573.33533	-1068.76428	-191.30574	1564.08105	-940.03284	-193.56721	1416.63599	-1011.22894	-246.14134	1089.53699	-1000.83313	-87.65337	1332.26807	-1006.52368	-58.70904	1155.42139	-1007.25769	-277.85986	1252.98621	-926.83496	-138.9034	1362.56531	-1171.23523	-203.67256	1171.07434	-1237.69275	-252.22868	1069.58264	-1246.54224	-292.76874	927.19067	-1277.21082	-276.45139	793.15582	-1251.08325	-338.47742	817.77667	-1279.35474	-341.53104	725.88696	-1283.44202	-135.26071	1372.83972	-846.66168	-183.94518	1185.70984	-745.96674	-172.38252	1069.37598	-722.57983	-107.14328	974.15479	-706.64404	14.63551	894.75671	-745.57452	-29.58128	862.63025	-707.77942	43.42593	824.29559	-705.60071	-63.80922	926.67737	-1099.0863	-86.22266	924.99231	-880.0213	-223.67233	951.98187	-1092.49475	-233.84723	957.5376	-923.94531	-46.7048	624.65375	-1174.03162	20.95162	481.53192	-1138.14282	70.14086	230.31889	-1133.57532	125.82964	66.72855	-1091.94653	90.93874	40.76381	-1046.55005	270.53668	82.82231	-1080.44482	-201.50865	602.22241	-846.43927	-232.33305	478.42575	-869.80933	-401.79587	263.02448	-886.17468	-507.00107	111.29231	-938.58209	-554.79254	108.32584	-983.06311	-380.62445	30.86052	-942.18396	-153.70097	1663.36414	-1004.74268	NaN	NaN	NaN	NaN	NaN	NaN	NaN	NaN	NaN
69	0.68	-35.77743	1624.55872	-1058.48413	-45.36939	1610.29504	-927.48969	-169.09233	1573.23389	-1070.08521	-176.93431	1563.89063	-941.43146	-178.98303	1416.09912	-1012.57892	-229.75302	1088.6156	-1001.70642	-72.75785	1332.18054	-1007.58313	-42.83456	1155.56458	-1008.02246	-262.96295	1252.10486	-928.31085	-123.80636	1362.33215	-1172.41162	-188.85234	1171.31238	-1239.08704	-237.84543	1070.09692	-1248.00391	-279.40167	928.0954	-1278.84729	-264.31485	793.82843	-1253.17542	-326.11603	819.16382	-1281.13672	-330.49622	727.39032	-1285.53491	-120.98984	1372.79431	-847.92731	-169.7908	1185.66382	-747.23254	-158.71005	1069.34644	-724.12622	-93.74977	974.23328	-707.71436	28.41492	894.8941	-746.15826	-16.08676	862.48712	-708.96277	56.70823	824.21008	-706.29858	-46.49183	926.85223	-1099.62891	-69.19859	925.00739	-880.64532	-206.4317	951.66815	-1093.49243	-216.74738	956.72522	-925.02234	-28.80938	624.80792	-1173.41211	38.08889	481.43045	-1137.84521	84.20319	229.05354	-1132.80103	136.62639	64.80725	-1090.68677	98.87904	41.87907	-1045.63965	281.28091	75.11473	-1078.33032	-183.40538	601.31158	-846.35919	-213.60854	477.23096	-868.85706	-389.83514	267.01688	-885.09717	-500.82916	119.5024	-936.97247	-548.06726	119.28977	-981.50916	-380.11389	30.8871	-942.17688	-139.01456	1663.26025	-1005.90875	NaN	NaN	NaN	NaN	NaN	NaN	NaN	NaN	NaN
70	0.69	-20.83269	1625.07166	-1059.3103	-30.99096	1610.40588	-928.35187	-154.19975	1573.60095	-1071.53833	-162.67004	1564.21851	-942.9928	-164.54338	1416.14929	-1014.05042	-213.34727	1088.10315	-1002.70129	-57.69167	1332.59436	-1008.69781	-26.88945	1156.16235	-1008.867	-247.88115	1251.5874	-929.86243	-108.53652	1362.57007	-1173.63574	-173.75049	1172.02014	-1240.8324	-223.05707	1070.8418	-1249.42065	-265.03131	929.10345	-1280.59473	-250.84435	794.52545	-1255.06335	-312.33255	820.56775	-1282.96252	-317.79413	728.90784	-1287.6803	-106.74363	1373.11023	-849.20795	-155.75018	1185.92322	-748.73389	-145.2104	1069.61145	-725.75781	-80.53645	974.08679	-709.22571	41.33282	894.38055	-746.96411	-3.44038	862.12073	-710.06927	69.54356	823.78918	-706.78424	-29.29362	927.39618	-1100.22461	-51.65845	925.33392	-881.46973	-189.03647	951.98706	-1094.6051	-199.377	956.33038	-925.9483	-11.2936	625.28387	-1172.60449	54.91462	481.61337	-1138.15662	97.3106	228.80856	-1131.02625	142.91142	63.82734	-1090.35657	102.62527	44.61201	-1045.08765	288.15067	60.89531	-1075.83081	-164.11734	600.35327	-846.29706	-193.01749	475.86121	-867.83527	-376.12854	271.64365	-884.20917	-492.85852	128.7562	-935.64673	-539.06299	131.63124	-980.24207	-379.58517	31.00986	-942.42987	-124.37533	1663.48987	-1007.15436	NaN	NaN	NaN	NaN	NaN	NaN	NaN	NaN	NaN
71	0.7	-5.85582	1626.09204	-1060.10913	-16.72215	1611.30078	-929.1886	-139.23994	1574.62207	-1073.11499	-148.44283	1564.97864	-944.53802	-149.7971	1416.72046	-1015.60492	-197.03542	1088.2179	-1003.44348	-42.71746	1333.63806	-1009.80988	-11.13672	1157.3728	-1009.80695	-232.98273	1251.5083	-931.85406	-93.17357	1363.34692	-1174.953	-158.2464	1172.91467	-1242.11145	-207.50262	1071.74634	-1251.08093	-249.53821	930.06976	-1282.36963	-235.80161	795.39392	-1256.6969	-296.99768	821.72382	-1284.72327	-303.17233	730.32532	-1289.85645	-92.49779	1373.94617	-850.42725	-142.08327	1186.59692	-750.21301	-131.81998	1070.12488	-727.37524	-67.8475	974.11554	-710.60291	53.76039	893.57648	-747.61023	8.43448	861.54578	-711.12457	80.82436	822.44373	-707.72485	-12.22306	928.59204	-1100.85876	-33.95328	926.11041	-882.44391	-171.96394	953.24261	-1095.44434	-181.77846	956.45502	-926.64569	5.92914	626.57568	-1171.74036	71.78517	483.08231	-1138.33752	109.36999	229.51389	-1131.06042	145.48895	62.66997	-1090.66504	104.43226	45.5216	-1045.89746	290.65826	51.2309	-1072.61194	-143.72189	599.24683	-846.1366	-170.43951	474.15338	-866.62421	-359.97653	276.57687	-883.5564	-482.39218	138.92409	-934.81616	-526.91406	145.18274	-979.59686	-378.36545	31.28102	-942.81793	-109.73718	1664.43066	-1008.40289	NaN	NaN	NaN	NaN	NaN	NaN	NaN	NaN	NaN
